<?xml version="1.0" encoding="utf-8"?>
<!-- Generator: Adobe Illustrator 24.0.2, SVG Export Plug-In . SVG Version: 6.00 Build 0)  -->
<svg version="1.1" id="Capa_1" xmlns="http://www.w3.org/2000/svg" xmlns:xlink="http://www.w3.org/1999/xlink" x="0px" y="0px"
	 viewBox="0 0 125.2 125.2" style="enable-background:new 0 0 125.2 125.2;" xml:space="preserve">
<style type="text/css">
	.st0{fill:#F73C37;}
</style>
<g>
	<g>
		<rect x="46.7" y="53.8" class="st0" width="8.1" height="14.8"/>
		<path class="st0" d="M97.3,9.7c0-6.2-3.6-9.7-9.8-9.7L51.3,0.1c-7,0-12.6,5.7-12.6,12.6V40h3V12.7c0-5.3,4.3-9.6,9.6-9.6h28
			c-1.7,2.4-1.7,5.6-1.7,9.6V40h3V18.3l13.1,0c0.6,0,1.5-0.1,2.3-0.8c0.6-0.5,1.3-1.4,1.3-3C97.5,11.9,97.3,10.1,97.3,9.7z
			 M94.4,14.4c0,0.5-0.1,0.8-0.2,0.9c-0.1,0.1-0.4,0.1-0.5,0.1l-13.1,0v-2.7c0-2.3,0-4.1,0.2-5.4c0.7-3,2.9-4.5,6.6-4.5
			c4.7,0,6.9,2.3,6.9,6.9l0,0.1C94.4,9.9,94.6,11.7,94.4,14.4z"/>
		<path class="st0" d="M59.1,28.6h14.2c0.8,0,1.5-0.7,1.5-1.5c0-0.8-0.7-1.5-1.5-1.5H59.1V28.6z"/>
		<rect x="51.4" y="25.6" class="st0" width="5.7" height="3"/>
		<path class="st0" d="M45.5,28.6h3.9v-3h-3.9c-0.8,0-1.5,0.7-1.5,1.5C44,28,44.7,28.6,45.5,28.6z"/>
		<rect x="72.2" y="53.8" class="st0" width="8.1" height="14.8"/>
		<path class="st0" d="M44,15.2c0,0.8,0.7,1.5,1.5,1.5h7.3v-3h-7.3C44.7,13.7,44,14.4,44,15.2z"/>
		<path class="st0" d="M84.7,25.7v18.9H35.4V25.7c-4.3,0.7-7.6,4.5-7.6,9v81.4c0,5,4.1,9.1,9.1,9.1h46.2c5,0,9.1-4.1,9.1-9.1V34.7
			C92.3,30.1,89,26.4,84.7,25.7z M49.8,116.2h-8.7v-8.7h8.7V116.2z M49.8,100.5h-8.7v-8.7h8.7V100.5z M49.8,85.5h-8.7v-8.7h8.7V85.5
			z M64.3,116.2h-8.7v-8.7h8.7V116.2z M64.3,100.5h-8.7v-8.7h8.7V100.5z M64.3,85.5h-8.7v-8.7h8.7V85.5z M79,116.2h-8.7v-8.7H79
			V116.2z M79,100.5h-8.7v-8.7H79V100.5z M79,85.5h-8.7v-8.7H79V85.5z M84.1,71.3H35V51.7h49.1L84.1,71.3L84.1,71.3z"/>
		<rect x="54.8" y="13.7" class="st0" width="10.7" height="3"/>
		<path class="st0" d="M74.8,15.2c0-0.8-0.7-1.5-1.5-1.5h-5.9v3h5.9C74.2,16.8,74.8,16.1,74.8,15.2z"/>
		<rect x="59.4" y="53.8" class="st0" width="8.1" height="14.8"/>
	</g>
</g>
</svg>
