<?xml version="1.0" encoding="utf-8"?>
<!-- Generator: Adobe Illustrator 24.0.2, SVG Export Plug-In . SVG Version: 6.00 Build 0)  -->
<svg version="1.1" id="Capa_1" xmlns="http://www.w3.org/2000/svg" xmlns:xlink="http://www.w3.org/1999/xlink" x="0px" y="0px"
	 viewBox="0 0 889 853" style="enable-background:new 0 0 889 853;" xml:space="preserve">
<style type="text/css">
	.st0{fill:#F73C37;}
	.st1{fill:#F4B459;}
	.st2{fill-rule:evenodd;clip-rule:evenodd;fill:#075D9E;}
</style>
<g>
	<path class="st0" d="M527.2,226.9c0,116.5-94.4,210.9-210.9,210.9c-116.5,0-210.9-94.4-210.9-210.9S199.9,16,316.3,16
		S527.2,110.4,527.2,226.9z"/>
	<path class="st1" d="M569.6,16c-47.3,0-90.8,15.8-126,42.1l0.2,0c6.9,6.7,14.6,11.4,20.4,19.1l-43.9,0.7
		c-6.9,6.9-13.1,14.5-19,22.3h77.4c5.9,7.1,11.3,13.2,16.3,21H387.2c-3.9,6.8-7.6,13.8-10.8,21h130.7c3.4,7.2,6.5,12.7,9.1,20.4
		H368.7c-2.3,7.3-4.3,14.7-5.9,22.3h159.6c1.6,7.3,2.8,14,3.6,20.9H359.7c-0.7,6.9-1.1,14-1.1,21.1h168.6c0,7.5-0.5,14.4-1.3,21.1
		H359.7c0.7,7.2,1.8,14.2,3.2,21.1h159.3c-1.6,6.8-3.5,13.7-5.9,20.8h-148c2.2,7.2,5,14.2,7.9,21.1h131c-3.6,7.7-7.7,13.8-12.3,21
		h-108c4.3,7.4,9,14.4,14.1,21.2l77.7,1.2c-6.6,8-15.1,12.7-22.9,19.7c0.4,0.3-12.4,0-37.6-0.4c38.3,39.6,91.9,64.2,151.4,64.2
		c116.5,0,210.9-94.4,210.9-210.9C780.5,110.4,686.1,16,569.6,16z"/>
</g>
<path id="VISA" class="st2" d="M205.2,712.6c-3,10.6-5,21.4-6.1,32.3h-9.2l-2-33.1c0,0-14.9-68.9-24.5-113.5
	c-8.5-37.5-14.4-37.1-34.9-37.1C86.6,561.3,7,561.6,7,561.6v9.2c41.1,0.6,76.6,29,86.2,69c19.3,81.3,46.6,196.4,46.6,196.4h81.7
	l126.8-274.8h-77.6L205.2,712.6z M391.2,836.1L449,561.3h-74.4l-57.8,274.8H391.2z M610.6,710.4c-8.5-13.5-19.7-25.2-32.8-34.4
	c-8.8-6.2-16.8-13.3-23.9-21.3c-4-4.8-6.2-10.9-6.3-17.2c-0.4-5.9,2-11.6,6.5-15.4c5.4-3.8,11.9-5.7,18.5-5.3
	c19.2,1.2,37.9,6.9,54.6,16.5l25.3-55.8c-24.7-13.6-52.5-20.5-80.6-20.1c-17.3-0.3-34.5,3.4-50.2,10.8
	c-29.1,13.4-47.5,42.7-46.9,74.7c-0.1,14.1,3.3,28,9.9,40.4c8.1,14,19,26.3,31.9,36.1c12,10,19.4,16.5,22.1,19.4
	c2.5,2.6,4.7,5.6,6.4,8.8c1.5,2.9,2.3,6.2,2.3,9.5c0.4,6.3-2.3,12.5-7.1,16.6c-6.1,4.3-13.5,6.3-21,5.8c-12.6-0.3-25-2.6-36.8-6.8
	c-12.7-4.1-24.8-9.7-36.1-16.7v65.8c9.7,6.3,20.4,10.8,31.7,13.4c12.8,3.2,25.9,4.7,39.1,4.7c27.6,1.7,54.8-6.6,76.9-23.2
	C622.8,789.2,629.7,745.5,610.6,710.4L610.6,710.4z M811.2,836.1h71.4l-23.1-274.8h-94.4L625.7,836.1h76.1l23.5-51.5h84L811.2,836.1
	z M792.8,636.7c4.6-10.1,8.5-20.6,11.4-31.3c-0.5,7-0.8,15.2-0.8,24.6l0.4,16.2l3.1,79.7H752L792.8,636.7z"/>
</svg>
