<?xml version="1.0" encoding="utf-8"?>
<!-- Generator: Adobe Illustrator 24.0.2, SVG Export Plug-In . SVG Version: 6.00 Build 0)  -->
<svg version="1.1" id="Capa_1" xmlns="http://www.w3.org/2000/svg" xmlns:xlink="http://www.w3.org/1999/xlink" x="0px" y="0px"
	 viewBox="0 0 401.6 368" style="enable-background:new 0 0 401.6 368;" xml:space="preserve">
<style type="text/css">
	.st0{fill:#F73C37;}
</style>
<g>
	<g>
		<path class="st0" d="M116.7,213.3c11.3,0,22.2-0.7,32.5-2.1V98.1C138.9,96.7,128,96,116.7,96C52.2,96,0,119.7,0,148.9v11.5
			C0,189.6,52.2,213.3,116.7,213.3z"/>
		<path class="st0" d="M116.7,272.4c11.3,0,22.2-0.7,32.5-2.1v-33.2c-10.3,1.4-21.2,2.1-32.5,2.1c-56.3,0-103.2-18.1-114.2-42.1
			C0.8,200.7,0,204.3,0,208v11.5C0,248.7,52.2,272.4,116.7,272.4z"/>
		<path class="st0" d="M149.2,298.8v-2.6c-10.3,1.4-21.2,2.1-32.5,2.1c-56.3,0-103.2-18.1-114.2-42.1c-1.6,3.5-2.5,7.1-2.5,10.8
			v11.5c0,29.2,52.2,52.9,116.7,52.9c12.9,0,25.3-1,36.9-2.7c-2.9-5.9-4.4-12.1-4.4-18.5V298.8z"/>
		<path class="st0" d="M284.9,6.4c-64.4,0-116.7,23.7-116.7,52.9v11.5c0,29.2,52.2,52.9,116.7,52.9c64.4,0,116.7-23.7,116.7-52.9
			V59.3C401.6,30.1,349.4,6.4,284.9,6.4z"/>
		<path class="st0" d="M284.9,149.6c-56.3,0-103.2-18.1-114.2-42.1c-1.6,3.5-2.5,7.1-2.5,10.8v11.5c0,29.2,52.2,52.9,116.7,52.9
			c64.4,0,116.7-23.7,116.7-52.9v-11.5c0-3.7-0.8-7.3-2.5-10.8C388.1,131.6,341.2,149.6,284.9,149.6z"/>
		<path class="st0" d="M284.9,208.7c-56.3,0-103.2-18.1-114.2-42.1c-1.6,3.5-2.5,7.1-2.5,10.8v11.5c0,29.2,52.2,52.9,116.7,52.9
			c64.4,0,116.7-23.7,116.7-52.9v-11.5c0-3.7-0.8-7.3-2.5-10.8C388.1,190.7,341.2,208.7,284.9,208.7z"/>
		<path class="st0" d="M284.9,271c-56.3,0-103.2-18.1-114.2-42.1c-1.6,3.5-2.5,7.1-2.5,10.8v11.5c0,29.2,52.2,52.9,116.7,52.9
			c64.4,0,116.7-23.7,116.7-52.9v-11.5c0-3.7-0.8-7.3-2.5-10.8C388.1,252.9,341.2,271,284.9,271z"/>
		<path class="st0" d="M284.9,330.1c-56.3,0-103.2-18.1-114.2-42.1c-1.6,3.5-2.5,7.1-2.5,10.8v11.5c0,29.2,52.2,52.9,116.7,52.9
			c64.4,0,116.7-23.7,116.7-52.9v-11.5c0-3.7-0.8-7.3-2.5-10.8C388.1,312,341.2,330.1,284.9,330.1z"/>
	</g>
</g>
</svg>
