<?xml version="1.0" encoding="utf-8"?>
<!-- Generator: Adobe Illustrator 24.0.2, SVG Export Plug-In . SVG Version: 6.00 Build 0)  -->
<svg version="1.1" id="Capa_1" xmlns="http://www.w3.org/2000/svg" xmlns:xlink="http://www.w3.org/1999/xlink" x="0px" y="0px"
	 viewBox="0 0 612 612" style="enable-background:new 0 0 612 612;" xml:space="preserve">
<style type="text/css">
	.st0{fill:#F73C37;}
</style>
<g>
	<path class="st0" d="M40.1,105.6c-11.4-34.6,7.4-72.1,42.1-83.5s72.1,7.5,83.5,42.1l129.9,393.7c-12.1-3.2-25-3.8-37.8-1.4
		L132,75.2c-5.3-16-22.6-24.8-38.7-19.5c-16,5.3-24.8,22.6-19.5,38.7c3.1,9.3-2,19.3-11.3,22.4C53.2,119.9,43.2,114.9,40.1,105.6z
		 M551.9,414.4l-212.8,70.2c7.6,8.6,13.5,18.8,17.3,30.3c0.1,0.4,0.2,0.8,0.3,1.2L563,448.1c9.3-3.1,14.4-13.1,11.3-22.4
		C571.2,416.4,561.2,411.3,551.9,414.4z M339.6,520.5c12.1,36.5-7.8,75.9-44.3,88c-36.5,12.1-75.9-7.8-88-44.3
		c-12.1-36.5,7.8-75.9,44.3-88C288.1,464.1,327.5,483.9,339.6,520.5z M306.5,531.4c-6-18.3-25.7-28.2-44-22.2
		c-18.3,6-28.2,25.7-22.2,44s25.7,28.2,44,22.2C302.6,569.4,312.5,549.7,306.5,531.4z M498.1,147.3l72.3,219c1.5,4.7-1,9.7-5.6,11.2
		l-227.4,75c-4.7,1.5-9.7-1-11.2-5.6l-72.3-219c-1.5-4.7,1-9.7,5.6-11.2l227.4-75C491.6,140.2,496.6,142.7,498.1,147.3z M468,274.6
		L390.6,232l-36.9,80.3l24.4,11.2l15.9-34.7l28.8,87.2l27.5-9.1l-28.8-87.2l33.5,18.4L468,274.6z M400.5,143.9l-46.2-140
		c-1-3-4.2-4.6-7.2-3.6l-39.6,13.1l-0.2,0.4l-0.3-0.2l-20.9,6.9l17.2,52.2l-23.6,7.8l-17.2-52.2l-20.9,6.9l-0.2,0.3l-0.4-0.2
		l-39.4,13c-3,1-4.6,4.2-3.6,7.2l46.2,140c1,3,4.2,4.6,7.2,3.6l145.4-48C399.8,150.1,401.5,146.9,400.5,143.9z"/>
</g>
</svg>
