<?xml version="1.0" encoding="utf-8"?>
<!-- Generator: Adobe Illustrator 24.0.2, SVG Export Plug-In . SVG Version: 6.00 Build 0)  -->
<svg version="1.1" id="Capa_1" xmlns="http://www.w3.org/2000/svg" xmlns:xlink="http://www.w3.org/1999/xlink" x="0px" y="0px"
	 viewBox="0 0 264 243.8" style="enable-background:new 0 0 264 243.8;" xml:space="preserve">
<style type="text/css">
	.st0{fill:#F73C37;}
</style>
<g>
	<path class="st0" d="M245.2,99.4H231V42.3c0-1.9-0.6-3.8-1.9-5.2L196.7,2.8c-1.4-1.5-3.3-2.4-5.4-2.4H55.1
		C43.2,0.4,33,10.2,33,22.1v77.3H19.5C8.9,99.4,0,108,0,118.6v105.6c0,10.6,8.9,19.2,19.5,19.2h225.6c10.6,0,18.8-8.6,18.8-19.2
		V118.6C264,108,255.7,99.4,245.2,99.4z M209.7,38.4H194v-16L209.7,38.4z M249.1,228.1c-1.4,2.2-3.9,3.5-6.3,3.5
		c-1.4,0-2.8-0.4-4-1.2l-81.2-51.8l-21.6,11.8c0,0,0,0,0,0c-1.1,0.6-2.3,0.9-3.6,0.9c-1.2,0-2.4-0.3-3.6-0.9l-21.2-11.6l-80.8,51.6
		c-1.3,0.8-2.6,1.2-4,1.2c-2.5,0-4.9-1.2-6.3-3.5c-2.2-3.5-1.2-8.1,2.3-10.4l73.8-47.2l-73.7-40.2c-3.6-2-5-6.5-3-10.2
		c2-3.6,6.4-5,10-3L48,129.4V22.1c0-3.6,3.4-6.7,7.1-6.7h124.6c0,0.1-0.7,0.2-0.7,0.3v30c0,4.1,4,7.7,8.2,7.7H216c0.1,0,0-0.2,0-0.2
		v76.2l22.5-12.2c3.6-2,8.3-0.6,10.3,3c2,3.6,0.7,8.2-2.9,10.2l-73.3,40l74.2,47.4C250.2,220,251.3,224.6,249.1,228.1z"/>
	<path class="st0" d="M80.2,53.4h26.5c4.1,0,7.5-3.4,7.5-7.5s-3.4-7.5-7.5-7.5H80.2c-4.1,0-7.5,3.4-7.5,7.5S76.1,53.4,80.2,53.4z"/>
	<path class="st0" d="M80.2,75.4h26.5c4.1,0,7.5-3.4,7.5-7.5s-3.4-7.5-7.5-7.5H80.2c-4.1,0-7.5,3.4-7.5,7.5S76.1,75.4,80.2,75.4z"/>
	<path class="st0" d="M79.7,97.4h14.6c4.1,0,7.5-3.4,7.5-7.5s-3.4-7.5-7.5-7.5H79.7c-4.1,0-7.5,3.4-7.5,7.5S75.5,97.4,79.7,97.4z"/>
	<path class="st0" d="M72.7,112.9c0,4.1,3.4,7.5,7.5,7.5H184c4.1,0,7.5-3.4,7.5-7.5s-3.4-7.5-7.5-7.5H80.2
		C76.1,105.4,72.7,108.7,72.7,112.9z"/>
	<path class="st0" d="M191.5,134.9c0-4.1-3.4-7.5-7.5-7.5H80.2c-4.1,0-7.5,3.4-7.5,7.5s3.4,7.5,7.5,7.5H184
		C188.1,142.4,191.5,139,191.5,134.9z"/>
</g>
</svg>
