<svg xmlns="http://www.w3.org/2000/svg" width="54" height="57.03" viewBox="0 0 54 57.03">
  <metadata><?xpacket begin="﻿" id="W5M0MpCehiHzreSzNTczkc9d"?>
<x:xmpmeta xmlns:x="adobe:ns:meta/" x:xmptk="Adobe XMP Core 5.6-c142 79.160924, 2017/07/13-01:06:39        ">
   <rdf:RDF xmlns:rdf="http://www.w3.org/1999/02/22-rdf-syntax-ns#">
      <rdf:Description rdf:about=""/>
   </rdf:RDF>
</x:xmpmeta>
                                                                                                    
                                                                                                    
                                                                                                    
                                                                                                    
                                                                                                    
                                                                                                    
                                                                                                    
                                                                                                    
                                                                                                    
                                                                                                    
                                                                                                    
                                                                                                    
                                                                                                    
                                                                                                    
                                                                                                    
                                                                                                    
                                                                                                    
                                                                                                    
                                                                                                    
                                                                                                    
                           
<?xpacket end="w"?></metadata>
<defs>
    <style>
      .cls-1 {
        fill: #f48120;
        fill-rule: evenodd;
      }
    </style>
  </defs>
  <path id="Qiwi" class="cls-1" d="M626.129,1040.87s6.569-.74,8.759,7.48c3.1-4.42,5.474-9.99,5.474-15.57s-2.737-13.61-7.542-17.54-9.671-6.25-17.882-6.25-16.179,5.82-18.977,9.69S590,1027.5,590,1034.74s2.372,15.2,12.53,20.6c7.238,3.74,15.814,2.88,17.76,2.45,2.676-.98,16.118-3.37,22.992,7.85,0.425,0.73.973,0.3,0.608-.37a17.6,17.6,0,0,0-5.474-6.87c-3.893-3-9.246-3.86-12.043-4.17s-7.664-2.82-9.124-6.13a6.851,6.851,0,0,0,.365,3.8c-3.406-.12-15.388-1.41-19.22-13.85s2.493-19.56,5.717-21.58,13.807-5.95,23.843,5.88a21.886,21.886,0,0,1,4.379,19.5S628.988,1039.4,626.129,1040.87Zm1.061,8.15a1.524,1.524,0,0,1,2.089.54,1.55,1.55,0,0,1-.2,2.16,1.525,1.525,0,0,1-2.09-.54A1.55,1.55,0,0,1,627.19,1049.02Zm5.022-1.9c0.271-.21.753-0.25,1.31,0.73a1.615,1.615,0,0,1-.094,1.97,0.567,0.567,0,0,1-.608-0.37C632.646,1049.16,631.79,1047.47,632.212,1047.12Z" transform="translate(-590 -1009)"/>
</svg>
