<svg xmlns="http://www.w3.org/2000/svg" width="56" height="54" viewBox="0 0 56 54">
  <metadata><?xpacket begin="﻿" id="W5M0MpCehiHzreSzNTczkc9d"?>
<x:xmpmeta xmlns:x="adobe:ns:meta/" x:xmptk="Adobe XMP Core 5.6-c142 79.160924, 2017/07/13-01:06:39        ">
   <rdf:RDF xmlns:rdf="http://www.w3.org/1999/02/22-rdf-syntax-ns#">
      <rdf:Description rdf:about=""/>
   </rdf:RDF>
</x:xmpmeta>
                                                                                                    
                                                                                                    
                                                                                                    
                                                                                                    
                                                                                                    
                                                                                                    
                                                                                                    
                                                                                                    
                                                                                                    
                                                                                                    
                                                                                                    
                                                                                                    
                                                                                                    
                                                                                                    
                                                                                                    
                                                                                                    
                                                                                                    
                                                                                                    
                                                                                                    
                                                                                                    
                           
<?xpacket end="w"?></metadata>
<defs>
    <style>
      .cls-1 {
        fill: #3aa111;
        fill-rule: evenodd;
      }
    </style>
  </defs>
  <path id="Sber" class="cls-1" d="M1005.97,753.439s11.9-7.183,15.19-9.433a20.493,20.493,0,0,1,3.83,1.388l-18.76,12.181-10.784-6.467a41.819,41.819,0,0,1,3.334-2.715C1001.26,750.325,1005.97,753.439,1005.97,753.439Zm0.39,8.051s14.58-9.353,22.28-14.691a18.046,18.046,0,0,1,3.5,2.739l-25.78,15.981-15.722-8.6s1.27-1.8,2.312-3.1C997.29,756.389,1006.36,761.49,1006.36,761.49Zm0.02,7.974,28.41-17.184a18.084,18.084,0,0,1,3.54,3.275c-10.57,6.464-31.95,19.321-31.95,19.321s-13.395-7.48-18.626-10.533a26.6,26.6,0,0,1,1.48-4.385C994.55,762.969,1006.38,769.464,1006.38,769.464Zm0,9.616s23.27-13.764,33.48-20.347a23.212,23.212,0,0,1,3.14,11.938c0,15.093-12.54,27.329-28,27.329s-28-12.236-28-27.329q0-1.331.128-2.63C996.864,773.607,1006.38,779.08,1006.38,779.08Z" transform="translate(-987 -744)"/>
</svg>
