<svg xmlns="http://www.w3.org/2000/svg" width="47" height="51" viewBox="0 0 47 51">
  <metadata><?xpacket begin="﻿" id="W5M0MpCehiHzreSzNTczkc9d"?>
<x:xmpmeta xmlns:x="adobe:ns:meta/" x:xmptk="Adobe XMP Core 5.6-c142 79.160924, 2017/07/13-01:06:39        ">
   <rdf:RDF xmlns:rdf="http://www.w3.org/1999/02/22-rdf-syntax-ns#">
      <rdf:Description rdf:about=""/>
   </rdf:RDF>
</x:xmpmeta>
                                                                                                    
                                                                                                    
                                                                                                    
                                                                                                    
                                                                                                    
                                                                                                    
                                                                                                    
                                                                                                    
                                                                                                    
                                                                                                    
                                                                                                    
                                                                                                    
                                                                                                    
                                                                                                    
                                                                                                    
                                                                                                    
                                                                                                    
                                                                                                    
                                                                                                    
                                                                                                    
                           
<?xpacket end="w"?></metadata>
<defs>
    <style>
      .cls-1 {
        fill: #df7416;
        fill-rule: evenodd;
      }
    </style>
  </defs>
  <path id="Yandex" class="cls-1" d="M194.015,1028.9v27.83s-0.656,5.18,6.57,5.18,34.554,0.07,34.554.07,5.78,0.76,5.78-5.55v-20.76s1.2-6.12-5.238-6.12h-4.134v15.89s0.044,2.91-4.817,4.8-18.262,5.81-18.262,5.81h-6.307l10.117-4.29,10.9-4.68s3.548-.75,3.548-7.32-0.055-24.99-.055-24.99,0.788-6.56-7.095-2.4-23.2,12.24-23.2,12.24S193.884,1026.25,194.015,1028.9Zm22.244-1.21c1.973-.91,3.574-0.27,3.574,1.43s-1.6,3.81-3.574,4.72-3.574.27-3.574-1.43S214.285,1028.6,216.259,1027.69Z" transform="translate(-194 -1011)"/>
</svg>
